# xmcd CD database file
# Copyright (C) 1993-1998 Ti Kan
#
# Track frame offsets:
#	150
#	12140
#	24297
#	39215
#	60927
#	75815
#	86332
#	100095
#	121192
#	132357
#	154487
#	175555
#	190542
#	201157
#	219520
#	236332
#	251327
#	262335
#	283995
#	299045
#	306927
#
# Disc length: 4409 seconds
#
# Revision: 1
# Processed by: cddbd v1.4b41PL1 Copyright (c) Steve Scherf et al.
# Submitted via: CDValet v3.31 - Copyright (c) 1997 Greg Leichner
#
DISCID=13113715
DTITLE=Various Artist - Loose - New Sounds Of The Old West
DYEAR=1900
DGENRE=
TTITLE0=Tilt-A-Whirl/The Bonnevilles
TTITLE1=Penthouse In The Woods/Scud Mountain Boys
TTITLE2=Brother/Nadine
TTITLE3=Every Day Is Like A Birthday Party/Lullaby For The Work
TTITLE3=ing Class
TTITLE4=Saddest Girl/Red Star Belgrade
TTITLE5=Lester Lampshade/Giant Sand
TTITLE6=Moving Furniture Around/The Handsome Family
TTITLE7=It Won't Hurt/Grace Braun
TTITLE8=Ballet High/Fuck
TTITLE9=Mood Indigo/Dakota Suite
TTITLE10=Handful Of Stars/Peter Bruntnell
TTITLE11=Calm/Richmond Fontaine
TTITLE12=Doris Days/Tom Leach
TTITLE13=All The Luck In The World/Neal Casal
TTITLE14=Dreams/Lincoln '65
TTITLE15=Must've Been High/Supersuckers
TTITLE16=Slag/Calexico
TTITLE17=The Petrified Florist/Lambchop
TTITLE18=All The Labor/The Gourds
TTITLE19=Thelma/John P Strohm
TTITLE20=Crickets recorded in Lincoln Nebraska
EXTD=Input by Bill (whall@netcomuk.co.uk)
EXTT0=
EXTT1=
EXTT2=
EXTT3=
EXTT4=
EXTT5=
EXTT6=
EXTT7=
EXTT8=
EXTT9=
EXTT10=
EXTT11=
EXTT12=
EXTT13=
EXTT14=
EXTT15=
EXTT16=
EXTT17=
EXTT18=
EXTT19=
EXTT20=
PLAYORDER=
